<svg xmlns="http://www.w3.org/2000/svg" fill="none" viewBox="0 0 1218 386">
<!--logo stars-->
  <g>
    <path fill="#fff" class="logo-star" id="logo-star-small" stroke-linecap="round" stroke-linejoin="round" d="M189.9 62.6c.4.2.5 2.3.3 4.6-.2 2.4.1 6.2.7 8.6.8 3.2 1.9 4.6 4.4 5.9 1.7.9 6.5 1.9 10.5 2.2 3.9.3 7.2.9 7.2 1.4 0 .4-1.5 1-3.2 1.3-1.8.3-6.2 1.5-9.8 2.7-3.6 1.2-7.6 3.1-9 4.3-1.4 1.2-3.7 4.8-5.2 8-1.4 3.3-3 6.8-3.4 7.9-.5 1.4-1-.1-1.6-5-.5-4-1.6-8.1-2.7-9.5-1-1.5-3.6-3-6.2-3.7-2.4-.6-6.5-1.2-9.1-1.2-2.7-.1-5-.5-5.3-1.1-.3-.5 1.2-1.3 3.3-1.6 2-.3 6-1.2 8.7-2 2.8-.8 6.5-2.4 8.3-3.6 2.3-1.6 4.6-4.9 7.4-10.9 2.3-4.8 4.4-8.5 4.7-8.3Z"/>
    <path fill="#fff" class="logo-star" id="logo-star-big" stroke-linecap="round" stroke-linejoin="round" d="M270.7.1c.2.2.4 7.6.5 16.5.2 12.6.6 16.5 1.8 17.9.8.9 2.9 2.5 4.5 3.4 2.5 1.3 6.5 1.6 23.8 1.6 11.4 0 20.7.3 20.7.8 0 .4-1.7 1-3.7 1.3-2.1.3-9.9 1.8-17.3 3.4-7.4 1.6-15.7 3.6-18.5 4.5-2.7 1-6.6 2.5-8.5 3.5-1.9 1-4.6 2.9-5.9 4.2-1.4 1.2-3.9 4.6-5.6 7.3-1.8 2.8-5.5 10.2-8.4 16.5-2.9 6.3-5.7 12-6.2 12.5-.6.6-.9.4-.9-.7 0-1 .7-5.1 1.6-9 .9-4 1.6-10.8 1.7-15 .2-6.4-.2-8.1-1.9-10.5-1.1-1.5-3.4-3.5-5-4.3-2.2-1.2-6.7-1.5-19.7-1.5-9.2 0-16.7-.3-16.7-.7 0-.5 1-1 2.3-1.2 1.2-.2 7.8-1.5 14.7-2.9 6.9-1.4 15.2-3.6 18.5-4.8 3.3-1.3 7.8-3.7 9.9-5.4 2.2-1.6 5.5-5.5 7.3-8.5 1.8-3 4.6-9.5 6.2-14.5 1.6-5 3.3-10.3 3.7-11.9.5-1.5 1-2.7 1.1-2.5Z"/>
  </g>
<!--logo swooshes-->
  <g>
    <path fill="#fff" class="logo-swoosh" id="logo-swoosh-top" stroke-linecap="round" stroke-linejoin="round" d="M336.8 34c.5 0 .8.8.6 1.8-.1.9-.5 3.3-.8 5.2-.3 1.9-1.3 8.9-2.1 15.5-.9 6.7-1.3 14-1 16.5.4 2.5 1.3 5.8 1.9 7.5.7 1.7 2.8 4.5 4.7 6.3 1.9 1.8 5.7 4.1 8.4 5.2 2.8 1 9.1 2.1 14 2.5 6.5.5 23.3-.5 61-3.4 28.6-2.2 70.9-5.2 94-6.5 23.1-1.4 51.9-3 64-3.6 12.1-.5 26.3-1.2 31.5-1.5 5.2-.3 27.7-1.2 50-2.1 24.3-.9 74-1.7 124-1.9 45.9-.2 95.6.1 110.5.5 14.9.5 37.4 1.4 50 2 12.6.6 33.1 1.7 45.5 2.6 12.4.8 29.9 2.1 39 2.9 9.1.8 21 2 26.5 2.6 5.5.6 19.5 2.4 31 4s27.8 4.3 36 5.8c8.3 1.6 20 4.1 26 5.6s16.2 4.4 22.5 6.5c6.3 2 15.7 5.8 20.8 8.4 5.1 2.5 11.5 6.7 14.3 9.4 2.8 2.6 6 6.4 7 8.5 1.1 2 1.9 5.7 1.9 8.2 0 2.5-.7 6-1.6 7.8-.9 1.7-3.3 5.2-5.3 7.6-2 2.4-7.4 6.9-12.1 9.9-4.7 3.1-13.1 7.7-18.7 10.4-5.7 2.6-10.8 4.7-11.4 4.6-.7-.2.7-1.5 3-3 2.2-1.6 6.8-5.6 10.2-9 4.5-4.7 6.4-7.6 7.5-11.3 1.2-4.1 1.3-5.8.3-9.5-.8-3.2-2.7-6-6.3-9.6-3.7-3.8-8-6.6-15.6-10.2-5.8-2.8-15.2-6.6-21-8.5-5.8-1.9-17.5-5.1-26-7-8.5-2-21.6-4.7-29-6.1-7.4-1.4-22.3-3.6-33-5s-26-3.2-34-4c-8-.8-17.2-1.8-20.5-2.1-3.3-.3-15.2-1.2-26.5-2s-30.9-1.9-43.5-2.5c-12.6-.6-27-1.2-32-1.5-5-.2-45-.7-89-1.1-52.1-.4-94.1-.2-120.5.5-22.3.6-45.7 1.4-52 1.6-6.3.3-27.9 1.2-48 2.1-20.1.8-38.7 1.6-41.5 1.9-2.7.2-10.6.7-17.5 1-6.9.3-29.6 1.7-50.5 3-20.9 1.4-52.9 3.6-71 5s-37.5 3-43 3.6c-5.5.6-14.3 2.2-19.5 3.5-5.2 1.3-12.2 3.7-15.5 5.3-3.3 1.6-7.8 4.9-9.9 7.3-2.2 2.3-5.4 7.5-7.2 11.3-1.7 3.8-4.8 11.9-6.7 18-1.9 6.1-4 12.9-4.6 15.3-.6 2.3-1.5 4.2-2.1 4.2-.5 0-.8-.8-.5-1.7.3-1 1.3-9.2 2.1-18.3.9-9.1 1.4-19 1.2-22.2-.2-4.3-.9-6.2-2.8-8.2-1.4-1.5-4.7-3.4-7.5-4.4-3.8-1.3-8.3-1.7-18.5-1.7-10 0-23.4 1.3-51.5 4.8-20.9 2.6-46.3 5.9-56.5 7.3-10.2 1.3-28.8 4.1-41.5 6-12.6 1.9-28.4 4.4-35 5.5-6.6 1.1-15.1 2.6-19 3.4-3.8.9-7.2 1.3-7.5 1-.3-.3-.3-.7 0-1 .3-.3 6.6-2.1 14-4s23.4-5.7 35.5-8.4c12.1-2.7 31.7-6.8 43.5-9s32.8-5.9 46.5-8.1c13.8-2.3 32.7-5.2 42-6.6 9.4-1.3 22.2-3.8 28.5-5.4 6.3-1.7 15.2-4.8 19.8-7 5.2-2.5 10.5-6.1 14.3-9.7 3.4-3.2 7.9-8.7 10-12.3 2.1-3.6 6.1-13.5 8.9-22 2.8-8.5 5.3-16.1 5.5-16.8.3-.6.8-1.2 1.3-1.2Z"/>
    <path fill="#fff" class="logo-swoosh" id="logo-swoosh-bottom" stroke-linecap="round" stroke-linejoin="round" d="M86.3 256.1c.4-.1.7.2.7.7 0 .4-2.1 1.8-4.7 3.1-2.7 1.3-9.7 5.6-15.8 9.6-6 4-13.7 10-17 13.4-3.3 3.3-7.5 8.6-9.2 11.8-2.5 4.4-3.3 7-3.3 10.8 0 2.8.8 6.7 1.9 9 1.1 2.2 4.3 6.3 7.3 9 3.2 3 9.2 6.9 14.8 9.7 5.2 2.6 14.5 6.4 20.5 8.4 6.1 2 18.4 5.4 27.5 7.5 9.1 2 24.8 5.1 35 6.8 10.2 1.7 23.7 3.7 30 4.5 6.3.8 18.7 2.2 27.5 3 8.8.9 22.5 2 30.5 2.6 8 .5 24.9 1.5 37.5 2.1 12.6.6 46.9 1.2 76 1.3 29.1 0 67-.2 84-.7 17.1-.4 45.2-1.4 62.5-2.2 17.3-.9 45.7-2.4 63-3.5 17.3-1.1 46.1-3.2 64-4.6 17.9-1.3 42.2-3.3 54-4.4 11.8-1.1 26.5-2.4 32.5-3 6-.6 23.4-2.4 38.5-4 15.1-1.7 40.8-4.6 57-6.4 16.2-1.9 34.9-4.2 41.5-5.1 6.6-.8 13.4-1.8 15-2.1 1.8-.4 3.3-.2 3.8.5.4.6.5 1.1.2 1.1s-13 2.4-28.2 5.4c-15.3 3-38.2 7-50.8 9-12.6 1.9-28 4.2-34 5-6 .9-20 2.7-31 4-11 1.4-26.1 3.2-33.5 4.1-7.4.8-20.5 2.1-29 3-8.5.8-20.2 1.9-26 2.5-5.8.5-13 1.2-16 1.5-3 .3-21.7 1.8-41.5 3.5-19.8 1.6-50.9 3.8-69 4.9-18.1 1.1-42.2 2.5-53.5 3.1-11.3.5-32.9 1.5-48 2-15.1.6-48.6 1.5-74.5 2-30.8.6-59.7.6-84 0-20.3-.6-49.4-1.9-64.5-3-15.1-1.1-35.1-2.9-44.5-4-9.3-1.1-22.8-3-30-4.1-7.1-1.1-19.1-3.4-26.5-5.1-7.4-1.7-18.2-4.5-24-6.4-5.8-1.8-13.9-4.7-18-6.4-4.1-1.7-10.6-5.1-14.5-7.4-3.8-2.4-8.9-6.5-11.2-9-2.4-2.5-5.2-6.4-6.3-8.6-1.1-2.2-2.3-5.9-2.6-8.2-.4-2.7-.1-6.4.9-9.8.9-3.1 3.5-8.1 6-11.5 2.4-3.3 8-8.7 12.3-12.1 4.4-3.3 10.6-7.7 13.9-9.6 3.3-2 11.4-6.3 18-9.4 6.6-3.2 17-7.7 23-10 6.1-2.3 11.3-4.3 11.8-4.3Z"/>
  </g>
<!--logo letters-->
  <g>
    <path fill="#fff" class="logo-letter" id="logo-letter-a" stroke-linecap="round" stroke-linejoin="round" d="m261.9 151.5 1.1 7c.6 3.8 1.7 9.9 2.6 13.5.8 3.6 5 18 9.4 32 4.3 14 10.9 35.2 14.5 47 3.7 11.8 8.5 27.6 10.7 35 2.3 7.399 4.2 14.7 4.8 19h-65.5l-2.4-8.7c-1.3-4.9-3.2-11.6-6.1-21.3h-34.2c-18.899 0-35.198.3-36.3.6-1.3.3-5.3 5.9-19.5 29.4h-34.5c-19 0-34.4-.4-34.2-.8.103-.404 6.902-11.103 15-23.8 8.2-12.6 22.5-34.8 31.8-49.4 9.3-14.6 24.4-38.3 33.7-52.7 13.7-21.5 17.1-26.2 19.2-26.5 1.402-.2 22.203-.4 89.9-.3Zm-55.5 39.1c-1.701 2.101-5.901 8.101-9.5 13.2-5.2 7.6-7.2 9.7-10.9 11.4-2.5 1.1-9.9 4-16.5 6.3l-12 4.3c27.899 13.4 28.6 13.9 30 17.7.8 2.2 2.4 7.6 3.6 12 1.1 4.399 2.399 8.298 2.8 8.7.3.4 2.6-2.2 5.1-5.8 2.5-3.6 6.6-9.4 9.3-13 3.3-4.5 6.1-7.1 9.5-8.8 2.6-1.3 9.6-4.2 15.7-6.6l11-4.3c-17.099-7.2-23.299-10.2-24.8-11.3-2.2-1.5-3.4-4-5.7-11.4-1.6-5.2-3.3-11-3.7-12.9l-.8-3.5-3.1 4Z"/>
    <path fill="#fff" class="logo-letter" id="logo-letter-l" stroke-linecap="round" stroke-linejoin="round" d="M363.1 151.1c22.9 0 30 .3 30.4 1.2.3.7-1.2 12.3-3.4 25.8-2.2 13.4-5.9 35.9-8.1 50-2.2 14-4.3 26.7-5 31h43.5c28.3 0 43.5.3 43.5 1 0 .5-1.6 10.5-3.5 22.2s-3.5 21.6-3.5 22c0 .4-33.8.8-150 .8l.5-2.3c.2-1.2 1.8-11 3.6-21.7 1.7-10.8 3.4-22.2 3.9-25.5.5-3.3 3.1-19.8 5.9-36.5 2.7-16.8 6.2-38.4 7.7-48 1.5-9.7 3.1-18.1 3.6-18.8.8-.9 8.1-1.2 30.9-1.2Z"/>
    <path fill="#fff" class="logo-letter" id="logo-letter-r" stroke-linecap="round" stroke-linejoin="round" d="M497.8 152c.303-.7 23.503-.9 70.5-.7 67.1.4 70.5.5 77.7 2.5 4.1 1.1 9.5 3.001 12 4.301 2.4 1.2 6.4 3.699 8.7 5.599 2.4 1.8 5.4 5.5 6.7 8.1 1.3 2.6 2.9 7.701 3.6 11.301.7 3.8.9 9.2.5 13-.4 3.5-1.4 9.6-2.2 13.5-.8 3.8-2.8 9.7-4.3 13-1.6 3.3-5.2 8.599-8.2 11.899-2.9 3.3-8 7.7-11.3 9.8-3.3 2.1-8.6 4.701-17.5 7.801l3.3 5.199c1.9 2.9 9.5 14.6 17 26s13.7 21.001 13.7 21.301c-.019.2-15.633.5-69 .5l-27.8-45.5-28.7-.601-7 45.601-31.3.199c-24.4.2-31.2 0-31.2-1 0-.702.9-7.301 2-14.699 1.1-7.5 3.6-22.8 5.5-34 1.8-11.3 5-30.9 7-43.5 2-12.7 5-31.001 6.8-40.801 1.7-9.8 3.3-18.3 3.5-18.8Zm53.8 52.3c-1 6.199-1.899 12.699-2.2 14.5l-.4 3.301c33.5 0 44.1-.501 47.2-1.201 3.4-.8 6.5-2.3 8.6-4.299 1.8-1.6 3.7-4.6 4.2-6.5.5-2 1-5.1 1-7 0-2-.7-4.601-1.7-5.801-1-1.3-3.6-2.7-5.8-3.3-2.2-.5-14.2-.899-26.6-.899h-22.6l-1.7 11.199Z"/>
    <path fill="#fff" class="logo-letter" id="logo-letter-e" stroke-linecap="round" stroke-linejoin="round" d="M784 151c64.7 0 82.1.3 82.4 1.3.3.7-.9 9.8-5.9 39.2l-103 .5-.8 4.3c-.4 2.3-1 5.7-1.7 10.7h48.7c26.9 0 48.9.1 48.9.3.1.1-.6 5.2-1.6 11.2-1 6.1-2.3 14.3-4 25.5h-98l-1 5c-.6 2.8-1 6.1-1 10h52.5c49.3 0 52.5.1 52.5 1.8 0 .9-1.6 10.9-3.5 22.2-1.9 11.3-3.5 20.9-3.5 21.3 0 .4-37.8.7-84 .7-66.5 0-84-.2-84-1.2 0-.7 1.6-11 3.5-22.8s7.1-44 11.5-71.5 8.3-51.6 8.6-53.5c.3-1.9.8-3.8 1-4.2.3-.4 37.4-.8 82.4-.8Z"/>
    <path fill="#fff" class="logo-letter" id="logo-letter-i" stroke-linecap="round" stroke-linejoin="round" d="M916.5 151c16.8 0 30.7.4 30.9.8.2.4-1.6 12.2-3.9 26.2s-8 48.4-21 127H861v-2.2c0-1.3 2.9-20.3 6.5-42.3 3.6-22 9.1-55.2 12.2-73.9 3.2-18.6 5.9-34.3 6.1-34.7.1-.5 14-.9 30.7-.9Z"/>
    <path fill="#fff" class="logo-letter" id="logo-letter-n" stroke-linecap="round" stroke-linejoin="round" d="M1003.1 151.2c23.8.2 38.4.7 38.9 1.3.5.6 7.9 15 16.5 32 8.6 17.1 18.4 36.4 27.9 55l1.7-11.5c.9-6.3 4-25.9 6.8-43.5s5.4-32.3 5.6-32.7c.3-.4 13.3-.8 29-.8s28.7.4 28.9.8c.3.4-2.7 20.3-6.5 44.2-3.8 23.9-8.7 54.3-10.9 67.5-2.1 13.2-4.5 28-6.5 41.5H1061l-9.6-17.7c-5.4-9.8-14.8-27-21-38.3-6.2-11.3-13.1-23.9-19.3-35.5l-.5 3.5c-.3 1.9-2.9 17.9-5.6 35.5-2.8 17.6-5.8 36.6-8.5 52.6l-28.3-.1c-24.8 0-28.2-.2-28-1.5.1-.9 2.4-15.1 5-31.8 2.6-16.6 5.9-37.4 7.3-46.2 1.4-8.8 4.5-28.6 7-44 2.5-15.4 4.8-28.6 5-29.3.4-1 8.2-1.2 38.6-1Z"/>
  </g>
</svg>
